<svg xmlns="http://www.w3.org/2000/svg" width="14.769" height="17" viewBox="0 0 14.769 17">
  <path id="_1_icon_tiktok" data-name="1_icon_tiktok" d="M10.125.014C11.053,0,11.974.007,12.895,0a4.412,4.412,0,0,0,1.24,2.954,5,5,0,0,0,3,1.268V7.076a7.582,7.582,0,0,1-2.975-.687,8.752,8.752,0,0,1-1.147-.659c-.007,2.068.007,4.137-.014,6.2a5.41,5.41,0,0,1-.956,2.791,5.277,5.277,0,0,1-4.186,2.274,5.165,5.165,0,0,1-2.89-.73,5.341,5.341,0,0,1-2.585-4.045c-.014-.354-.021-.708-.007-1.055A5.332,5.332,0,0,1,8.56,6.432c.014,1.048-.028,2.1-.028,3.145a2.43,2.43,0,0,0-3.1,1.5,2.81,2.81,0,0,0-.1,1.14,2.411,2.411,0,0,0,2.479,2.033,2.38,2.38,0,0,0,1.962-1.14,1.634,1.634,0,0,0,.29-.751c.071-1.268.043-2.529.05-3.8.007-2.855-.007-5.7.014-8.549Z" transform="translate(-2.369)" fill="#fff"/>
</svg>
