<svg xmlns="http://www.w3.org/2000/svg" width="20" height="20" viewBox="0 0 20 20">
  <path id="_8_icon_name" data-name="8_icon_name" d="M83.85-864.9a10.436,10.436,0,0,1,2.85-1.537A9.737,9.737,0,0,1,90-867a9.737,9.737,0,0,1,3.3.563,10.436,10.436,0,0,1,2.85,1.537,7.729,7.729,0,0,0,1.362-2.325A7.838,7.838,0,0,0,98-870a7.712,7.712,0,0,0-2.338-5.662A7.712,7.712,0,0,0,90-878a7.712,7.712,0,0,0-5.662,2.338A7.712,7.712,0,0,0,82-870a7.838,7.838,0,0,0,.488,2.775A7.729,7.729,0,0,0,83.85-864.9ZM90-869a3.382,3.382,0,0,1-2.488-1.013A3.381,3.381,0,0,1,86.5-872.5a3.381,3.381,0,0,1,1.012-2.487A3.382,3.382,0,0,1,90-876a3.382,3.382,0,0,1,2.488,1.013A3.381,3.381,0,0,1,93.5-872.5a3.381,3.381,0,0,1-1.012,2.487A3.382,3.382,0,0,1,90-869Zm0,9a9.738,9.738,0,0,1-3.9-.787,10.1,10.1,0,0,1-3.175-2.138,10.1,10.1,0,0,1-2.138-3.175A9.738,9.738,0,0,1,80-870a9.738,9.738,0,0,1,.787-3.9,10.1,10.1,0,0,1,2.138-3.175,10.1,10.1,0,0,1,3.175-2.138A9.738,9.738,0,0,1,90-880a9.738,9.738,0,0,1,3.9.787,10.1,10.1,0,0,1,3.175,2.138,10.1,10.1,0,0,1,2.138,3.175A9.738,9.738,0,0,1,100-870a9.738,9.738,0,0,1-.787,3.9,10.1,10.1,0,0,1-2.138,3.175,10.1,10.1,0,0,1-3.175,2.138A9.738,9.738,0,0,1,90-860Z" transform="translate(-80 880)" fill="#071529"/>
</svg>
