<svg xmlns="http://www.w3.org/2000/svg" width="20" height="20" viewBox="0 0 20 20">
  <path id="_8_icon_phone" data-name="8_icon_phone" d="M138.833-820a16.678,16.678,0,0,1-6.861-1.514,20.525,20.525,0,0,1-6.167-4.292,20.525,20.525,0,0,1-4.292-6.167A16.678,16.678,0,0,1,120-838.833a1.131,1.131,0,0,1,.333-.833,1.131,1.131,0,0,1,.833-.333h4.5a1.033,1.033,0,0,1,.694.264,1.015,1.015,0,0,1,.361.625l.722,3.889a1.959,1.959,0,0,1-.028.75,1.169,1.169,0,0,1-.306.528l-2.694,2.722a13.432,13.432,0,0,0,1.319,1.986,19.55,19.55,0,0,0,1.681,1.847,19.542,19.542,0,0,0,1.806,1.6,17.572,17.572,0,0,0,2,1.347l2.611-2.611a1.555,1.555,0,0,1,.653-.375,1.789,1.789,0,0,1,.792-.069l3.833.778a1.286,1.286,0,0,1,.639.4.978.978,0,0,1,.25.653v4.5a1.131,1.131,0,0,1-.333.833A1.131,1.131,0,0,1,138.833-820Z" transform="translate(-120 840)" fill="#071529"/>
</svg>
