<svg xmlns="http://www.w3.org/2000/svg" xmlns:xlink="http://www.w3.org/1999/xlink" width="299.641" height="71" viewBox="0 0 299.641 71">
  <defs>
    <linearGradient id="linear-gradient" x1="0.5" y1="0.794" x2="0.5" y2="0.009" gradientUnits="objectBoundingBox">
      <stop offset="0" stop-color="#ff5e57"/>
      <stop offset="0.622" stop-color="#ffbd4a"/>
    </linearGradient>
  </defs>
  <g id="_9_logo" data-name="9_logo" transform="translate(-18.359 -17.174)">
    <g id="icon" transform="translate(18.359 17.174)">
      <path id="Tracé_1" data-name="Tracé 1" d="M220.69,176.226a59.058,59.058,0,0,0-114.609-20.045C162.97,156.94,149.176,176.226,220.69,176.226Z" transform="translate(-102.585 -117.174)" fill="url(#linear-gradient)"/>
      <g id="line" transform="translate(0 38.361)">
        <path id="Tracé_2" data-name="Tracé 2" d="M112.883,215.165a150.151,150.151,0,0,1,15.208,2.662,110.309,110.309,0,0,1,14.621,4.518c2.393.912,4.786,1.878,7.2,2.863s4.868,1.934,7.361,2.825,5.031,1.684,7.589,2.4c1.287.331,2.568.689,3.866.969l1.941.445c.648.139,1.3.258,1.952.383a129.106,129.106,0,0,0,15.705,1.973,194.3,194.3,0,0,0,31.381-.624c-5.21-.5-10.4-.852-15.579-1.327s-10.329-.962-15.439-1.672c-5.111-.695-10.185-1.522-15.171-2.65l-1.869-.423-1.856-.468c-1.242-.295-2.462-.665-3.689-1.008s-2.441-.731-3.656-1.117c-1.21-.405-2.422-.8-3.624-1.245-2.417-.84-4.815-1.775-7.242-2.712-2.429-.921-4.874-1.88-7.379-2.733-1.243-.442-2.516-.831-3.776-1.24-1.277-.369-2.547-.759-3.841-1.071-2.568-.693-5.183-1.193-7.793-1.647a126.543,126.543,0,0,0-31.437-.757c1.3.147,2.6.259,3.9.389,1.3.1,2.594.241,3.888.383C107.736,214.539,110.313,214.852,112.883,215.165Z" transform="translate(-97.359 -212.89)" fill="#fff"/>
        <path id="Tracé_3" data-name="Tracé 3" d="M177.958,243.826a140.194,140.194,0,0,1-13.749-3.505c-4.525-1.377-8.965-3.052-13.467-4.73a123.817,123.817,0,0,0-13.862-4.473c-2.369-.6-4.774-1.053-7.183-1.425-2.417-.331-4.834-.606-7.256-.75a102.571,102.571,0,0,0-14.487.2c9.6.836,19.11,2.018,28.113,4.9,4.513,1.39,8.9,3.163,13.352,4.963q3.337,1.354,6.742,2.645c2.279.834,4.576,1.642,6.908,2.358l1.75.531,1.763.488c1.172.337,2.357.626,3.542.913s2.379.531,3.569.792,2.389.466,3.587.683c4.793.835,9.619,1.391,14.446,1.754a194.893,194.893,0,0,0,28.93-.213c-9.6-.809-19.162-1.562-28.624-2.8C187.3,245.514,182.6,244.775,177.958,243.826Z" transform="translate(-103.707 -222.41)" fill="#fff"/>
        <path id="Tracé_4" data-name="Tracé 4" d="M187.067,260.593a112.782,112.782,0,0,1-12-3.044c-1.977-.594-3.933-1.262-5.885-1.957s-3.891-1.451-5.85-2.181a110.952,110.952,0,0,0-12.019-3.93c-2.052-.527-4.131-.948-6.218-1.286-2.093-.3-4.189-.561-6.291-.705a93.705,93.705,0,0,0-12.588.01c8.349.583,16.652,1.552,24.535,4,1.973.594,3.916,1.292,5.859,2s3.866,1.5,5.8,2.282c3.879,1.549,7.819,3.073,11.86,4.331a107.08,107.08,0,0,0,12.325,2.971c4.162.713,8.343,1.253,12.538,1.571a179.962,179.962,0,0,0,25.146.084c-8.357-.56-16.682-1.157-24.934-2.162C195.225,262.019,191.119,261.433,187.067,260.593Z" transform="translate(-114.649 -233.499)" fill="#fff"/>
      </g>
      <path id="Tracé_5" data-name="Tracé 5" d="M99.116,137.769a4.884,4.884,0,0,1,2.662-2.378,9.427,9.427,0,0,1,3.881-.679,9.105,9.105,0,0,1,1.406.125,8.142,8.142,0,0,1,.836.187,7.444,7.444,0,0,1,2.049.923c.192.124.372.253.54.386s.327.268.474.4a7.793,7.793,0,0,1,1.282,1.543,16.373,16.373,0,0,0-2.649-3.656c-.039-.494-.024-.992-.048-1.486-.158.322-.363.618-.529.938a13.809,13.809,0,0,0-1.514-1.168,6.161,6.161,0,0,0,.1-1.169c-.209.214-.381.565-.616.824a7.857,7.857,0,0,1-2.089-2.107,2.165,2.165,0,0,1,.429-.158,3.454,3.454,0,0,1,.51-.1,4.056,4.056,0,0,1,.878,0,4.7,4.7,0,0,1,.642.111q.114.028.231.063a5.889,5.889,0,0,1,1.006.4,8.8,8.8,0,0,1,2.026,1.462A6.931,6.931,0,0,1,112.909,137a7.721,7.721,0,0,1,.352-1.074,7.382,7.382,0,0,1,1.28-2.06,7.711,7.711,0,0,1,.875-.849,8.858,8.858,0,0,1,1.538-1.02c4.719-2.486,7.218-.254,7.218-.254a6.988,6.988,0,0,1-1.124.828,8.161,8.161,0,0,0-.826-.924,4.668,4.668,0,0,0,.4,1.171,10.422,10.422,0,0,1-1.869.794l-.014,0a9.373,9.373,0,0,1-.78-1.028,2.676,2.676,0,0,0,.345,1.173c-.128.044-.256.09-.384.137a3.845,3.845,0,0,0-.361-.563,5.8,5.8,0,0,0,.022.688c-.3.118-.6.249-.9.388a1.326,1.326,0,0,0-.314-.344c0,.162.011.322.019.483a14.98,14.98,0,0,0-2.274,1.385,5.67,5.67,0,0,1,4.842-.194,7.682,7.682,0,0,1,4.988,6.859,5.062,5.062,0,0,1-1.578-.292c-.014-.386.042-.822.043-1.129a5.05,5.05,0,0,1-.337,1.024,7.568,7.568,0,0,1-1.095-.519,6.047,6.047,0,0,0-.086-1.33,4.289,4.289,0,0,1-.046-.575,11.3,11.3,0,0,1-.433,1.545c-.055-.038-.109-.073-.165-.113-.2-.143-.4-.278-.6-.41a9.956,9.956,0,0,0-.144-1.355c-.045.352-.2.762-.252,1.11a11.341,11.341,0,0,0-1.806-.9,8.974,8.974,0,0,1,1.08.9c3.906,3.806,2.845,7.272,2.845,7.272a8.187,8.187,0,0,1-2.012-1.654,8.265,8.265,0,0,0,.221-1.766,3,3,0,0,1-.511,1.439c-.194-.228-.391-.476-.588-.75q-.272-.38-.557-.742a4.069,4.069,0,0,0,.634-1.722,5.364,5.364,0,0,1-.944,1.339,15.582,15.582,0,0,0-1.246-1.334,12.8,12.8,0,0,0,.389-1.444,12.825,12.825,0,0,1-.816,1.054,15.072,15.072,0,0,0-1.345-1.051,7.64,7.64,0,0,0,.1-.8,2.8,2.8,0,0,1-.526.519,19.279,19.279,0,0,0-2.058-1.158,96.941,96.941,0,0,1,6.121,24.13H116.64a73.287,73.287,0,0,0-4.267-24.381,16.838,16.838,0,0,0-3.393,6.167c-.361-.176-.717-.367-1.069-.549a6.716,6.716,0,0,0,.891,1.217c-.089.366-.166.734-.231,1.107a2.778,2.778,0,0,0-.939-.473,4.743,4.743,0,0,0,.849,1.02,9.18,9.18,0,0,1-1.33,3.735,3.115,3.115,0,0,1-.291-.374,5.481,5.481,0,0,1-.414-.723q-.044-.091-.088-.19a6.813,6.813,0,0,1-.392-1.178,7.722,7.722,0,0,1-.184-1.214c-.016-.223-.024-.455-.022-.7a9.775,9.775,0,0,1,.148-1.576,12.219,12.219,0,0,1,.469-1.817,8.916,8.916,0,0,1,.551-1.295,12.337,12.337,0,0,0-1.789,2.658c-.1.2-.214.393-.325.573a9.1,9.1,0,0,1-1.23-1.2,6.042,6.042,0,0,0,.745,1.849c.005.011.008.024.012.035a5.787,5.787,0,0,1-1.863,1.657,7.16,7.16,0,0,1-.613-2.089,7.6,7.6,0,0,1,.128-2.894c.029-.12.062-.242.1-.363a7.949,7.949,0,0,1,1.393-2.647q.15-.192.317-.383a6.579,6.579,0,0,1,.687-.681,5.792,5.792,0,0,1,.718-.523,5.4,5.4,0,0,1,.739-.38,5.839,5.839,0,0,1,2.236-.446h.021a14.913,14.913,0,0,0-3.044-.187,2.055,2.055,0,0,1-.174-.7,7.63,7.63,0,0,1-.336.733q-.3.022-.594.055a5.688,5.688,0,0,1-.659-1.168c-.047-.128-.089-.247-.137-.374a13.387,13.387,0,0,1-.511,1.726,9.107,9.107,0,0,1-3.631-.148Z" transform="translate(-98.412 -124.964)" fill="#fff"/>
      <path id="Tracé_6" data-name="Tracé 6" d="M179.41,170.532a3.04,3.04,0,0,0-1.657-1.48,5.862,5.862,0,0,0-2.415-.422,5.63,5.63,0,0,0-.875.078,5.13,5.13,0,0,0-.52.116,4.64,4.64,0,0,0-1.275.574c-.119.077-.231.158-.336.24s-.2.167-.295.251a4.871,4.871,0,0,0-.8.96,10.177,10.177,0,0,1,1.648-2.275c.024-.307.015-.617.03-.925.1.2.226.385.329.584a8.6,8.6,0,0,1,.942-.727,3.859,3.859,0,0,1-.065-.727c.13.133.237.352.384.513a4.883,4.883,0,0,0,1.3-1.311,1.36,1.36,0,0,0-.267-.1,2.2,2.2,0,0,0-.317-.06,2.565,2.565,0,0,0-.546,0,2.971,2.971,0,0,0-.4.069c-.047.012-.1.024-.144.039a3.7,3.7,0,0,0-.626.251,5.467,5.467,0,0,0-1.26.909,4.312,4.312,0,0,0-1.42,2.963,4.79,4.79,0,0,0-.219-.668,4.6,4.6,0,0,0-.8-1.282,4.852,4.852,0,0,0-.544-.529,5.529,5.529,0,0,0-.957-.634c-2.936-1.547-4.491-.158-4.491-.158a4.362,4.362,0,0,0,.7.515,5.044,5.044,0,0,1,.514-.575,2.9,2.9,0,0,1-.248.729,6.525,6.525,0,0,0,1.163.494l.009,0a5.8,5.8,0,0,0,.485-.64,1.658,1.658,0,0,1-.215.729l.239.085a2.376,2.376,0,0,1,.225-.35,3.634,3.634,0,0,1-.014.428c.188.073.374.155.559.241a.817.817,0,0,1,.2-.214c0,.1-.007.2-.012.3a9.314,9.314,0,0,1,1.415.863,3.528,3.528,0,0,0-3.013-.121,4.78,4.78,0,0,0-3.1,4.268,3.15,3.15,0,0,0,.982-.182c.009-.24-.026-.511-.027-.7a3.176,3.176,0,0,0,.21.637,4.725,4.725,0,0,0,.681-.323,3.743,3.743,0,0,1,.053-.827,2.661,2.661,0,0,0,.028-.358,7.09,7.09,0,0,0,.27.962c.034-.024.068-.045.1-.07.123-.089.248-.173.373-.255a6.251,6.251,0,0,1,.089-.843c.028.219.125.474.157.691a7.116,7.116,0,0,1,1.124-.559,5.622,5.622,0,0,0-.672.561c-2.43,2.368-1.77,4.525-1.77,4.525a5.1,5.1,0,0,0,1.252-1.03,5.149,5.149,0,0,1-.137-1.1,1.866,1.866,0,0,0,.318.9c.121-.142.244-.3.366-.467s.228-.311.347-.462a2.533,2.533,0,0,1-.395-1.071,3.334,3.334,0,0,0,.588.833,9.675,9.675,0,0,1,.775-.83,7.96,7.96,0,0,1-.242-.9,7.958,7.958,0,0,0,.508.656,9.361,9.361,0,0,1,.836-.654,4.753,4.753,0,0,1-.065-.5,1.732,1.732,0,0,0,.327.323,12.15,12.15,0,0,1,1.28-.721,60.333,60.333,0,0,0-3.809,15.014h2.236a45.6,45.6,0,0,1,2.655-15.17,10.481,10.481,0,0,1,2.111,3.837c.224-.109.446-.228.665-.341a4.17,4.17,0,0,1-.554.757q.082.341.144.689a1.732,1.732,0,0,1,.584-.294,2.96,2.96,0,0,1-.528.635,5.717,5.717,0,0,0,.827,2.324,1.926,1.926,0,0,0,.181-.232,3.419,3.419,0,0,0,.258-.45c.018-.038.036-.077.054-.119a4.2,4.2,0,0,0,.244-.733,4.772,4.772,0,0,0,.115-.756c.01-.138.015-.283.013-.434a6.038,6.038,0,0,0-.092-.981,7.55,7.55,0,0,0-.291-1.131,5.556,5.556,0,0,0-.343-.806,7.681,7.681,0,0,1,1.113,1.654c.065.127.133.244.2.357a5.7,5.7,0,0,0,.765-.745,3.759,3.759,0,0,1-.464,1.15c0,.007,0,.015-.008.022a3.6,3.6,0,0,0,1.16,1.031,4.461,4.461,0,0,0,.381-1.3,4.732,4.732,0,0,0-.079-1.8c-.018-.075-.038-.15-.061-.226a4.95,4.95,0,0,0-.867-1.647c-.062-.079-.128-.159-.2-.238a4.128,4.128,0,0,0-.428-.423,3.554,3.554,0,0,0-.447-.325,3.427,3.427,0,0,0-.46-.237,3.632,3.632,0,0,0-1.391-.277h-.013a9.286,9.286,0,0,1,1.894-.116,1.27,1.27,0,0,0,.108-.438,4.712,4.712,0,0,0,.209.456c.123.009.247.02.37.034a3.53,3.53,0,0,0,.41-.727c.029-.079.055-.154.086-.232a8.27,8.27,0,0,0,.318,1.074,5.666,5.666,0,0,0,2.259-.092Z" transform="translate(-136.524 -146.316)" fill="#fff"/>
      <path id="Tracé_7" data-name="Tracé 7" d="M212.582,154.48l-1.346-.6a.787.787,0,1,1,.644-1.437l.111.05-1.265-4.262-1.353-.606a.787.787,0,1,1,.644-1.437l.118.053-1.5-5.047c-3.655-1.512-6.554-2.72-7.219-3.018a5.2,5.2,0,0,1-2.949-4.7,5.2,5.2,0,0,1,5.471-.926c.665.3,3.5,1.66,7.057,3.382l4.764-2.24-.118-.053a.788.788,0,0,1,.644-1.437l1.353.607,4.024-1.891-.111-.05a.788.788,0,0,1,.644-1.437l1.346.6,6.221-2.924,1.983.889-10.413,7.827-2.32,3.994c4.369,2.444,11.155,6.069,11.155,6.069l6.063-3.165,1.336.6-3.5,4.557a1.131,1.131,0,0,1,.713.9,1.061,1.061,0,1,1-.726,1.62,1.131,1.131,0,0,1-1.149.068l-1.072,5.645-1.336-.6-1.67-6.632s-7.222-2.654-11.953-4.29l-1.438,4.389,1.085,12.982-1.984-.889Z" transform="translate(-157.926 -123.124)" fill="#fff"/>
      <path id="Tracé_8" data-name="Tracé 8" d="M316.4,200.3c3.41,2.356,6.742,4.809,9.953,7.374,2.575,2.058,5.07,4.195,7.438,6.417a58.977,58.977,0,0,0-1.25-8.679q-1.616-1.018-3.249-2c-3.653-2.171-7.371-4.187-11.134-6.084A240.411,240.411,0,0,0,295.1,187.258,238.633,238.633,0,0,1,316.4,200.3Z" transform="translate(-215.852 -159.17)" fill="#fff"/>
    </g>
    <text id="EasyTrip" transform="translate(152 71.174)" fill="#fff" font-size="55" font-family="Caveat"><tspan x="0" y="0">EasyTrip</tspan></text>
  </g>
</svg>
