<svg xmlns="http://www.w3.org/2000/svg" width="1919.414" height="26.728" viewBox="0 0 1919.414 26.728">
  <path id="_deco_section" d="M1906.688,15.675c-1.653,1.78-3.943.347-5.823.883-.623-.442-.879-1.208-1.873-1.044-1.992,1.974-5.01,1.6-7.448,2.713-.417-.074-.441-1-1.238-.33-.1.113-.323.356-1.033,1.142-.492-.938-.948-1.805-1.409-2.683-2.1,2.389-5.174-.159-7.012,2.03-.991-1.465-3.179-.306-4.117-1.874-.5.379-.778,1.019-1.6.989-3.682-.135-6.783-2.2-10.129-2.986-2.646,2.246-6.3-.391-8.975,2.322-1.84-3.085-5.408.125-7.492-2.352-2.784,1.2-5.6.211-7.657-1.15-2.544-1.684-5.658.525-7.617-2.049L1831.5,12.5c-1.235-.125-2.3-1.9-3.511-.95-1.5,1.176-3.069,1.008-4.633.888a5.893,5.893,0,0,0-3.89,1.47c-1.507,1.073-2.629,2.676-4.531.757-2.571,1.628-5.022-1.022-7.607-.219a2.327,2.327,0,0,1-2.258-.563c-1.085-.914-2.433-.347-4-.191-.359.553-.792,1.217-1.557,2.392l-1.313-2.166c-2.294-1.216-3.012.829-4.3.584-2.3-1.75-4.521-1.209-6.864.046-.324-.259-.688-.8-1.059-.8-4.448-.06-8.9-.038-13.98-.038l-1.173,1.976c-2.149-1.008-3.842-2.035-5.738-.538-1.279,1.01-3.3-.474-4.443,1.4-.961,1.577-3.543.592-4.438,2.5-3.05.142-5.8,2.6-9.159.84a5.54,5.54,0,0,0-5.593.089c-1.931,1.44-2.974-.217-4.092-.435l-5.471,1.992c-1.57-1.758-3.127-1.162-4.6.068-1.607-1.257-3.317-1.732-4.943-.6a4.05,4.05,0,0,1-2.809.466c-3.405-.126-6.516,1.034-9.7,2.036l-1.266-1.166c-.591.759-1.2,1.538-1.725,2.212h-8.18c-.132.319-.531,1.282-.687,1.656-1.575.655-1.718-.829-2.71-.7-.934-.347-1.032,1.229-2,.986a1.586,1.586,0,0,1-1.831.262c-4.749-2.376-9.568-1.722-14.54-.734a24.25,24.25,0,0,1-10.771.021c-8.529-2.281-14.354.386-22.609,1.185-.667,0-3.228-.765-3.895-.765-.269-1.448-2.1-.853-2.87-2.04-2.285.507-4.856-.825-7,1-.521-.312-.772-1.039-1.6-.942a14.035,14.035,0,0,1-7.854-1.536,5.255,5.255,0,0,0-4.261-.345c-3.7,1.805-7.167.856-10.271-.122-1.912.04-2.112,2.065-3.931,2.006-1.694.765-1.941-1.694-3.332-2a36.685,36.685,0,0,0-5.024.049c-1.732.243-2.8-1.4-4.6-1.124-2.718.409-5.469.152-7.379-2.128-2.17,1.577-4.005-.289-5.965.134a5.865,5.865,0,0,1-5.64-1.813c-3.357-.918-6.184,1.8-9.276.846-.445.925-.152,1.714-.918,2.031-.971.4-1.309-.68-2.029-.883-.6,1.118-1.666.873-2.634.885-1.143.013-2.285,0-3.268,0-1.106,1.114-2.044,2.06-2.726,2.746-1.358.58-2.729-.321-3.578.645-1.388,1.575-3.174-.984-4.441.609a17.8,17.8,0,0,0-12.691-.062,4.392,4.392,0,0,1-2.867-.2,19.953,19.953,0,0,0-10.131-1.631c-.475-.7-1.028-1.521-1.345-1.989a32.52,32.52,0,0,1-5.385-.352c-9.312-2.279-14.828-3.4-21.018-2.769a2.73,2.73,0,0,1-1.481-.024c-2.459-1.461-5.34-1.7-7.979-2.411-2.833-.764-5.061-2.335-7.593-3.466-.969-.433-1.489-1.215-2.317-1.644-3.614-1.874-8.017-1.064-11.524-3.343-3.526,2.029-7.422.189-11.06,1.061L1443.8,9.481c-3.257,0-6.584.095-9.9-.026-3.349-.123-5.717,2.383-8.814,3.184l-2.857-2.584c-.712,1.586-2.6,1.038-3.4,2.375-4.875.261-9.631.244-13.9-2.711a3.121,3.121,0,0,0-3.646.316,2.944,2.944,0,0,1-3.243.338,5.993,5.993,0,0,0-4.655-.83c-1.742.225-3.054-1.255-4.583-1-2.853.469-5.448-.766-8.049-1.29-1.847-.371-3.941-.443-5.849-1.488a17.3,17.3,0,0,0-7.542-2.143c-2.824-.081-5.771-1.03-8.669.719a4.214,4.214,0,0,1-4.648-.541c-.876-.771-2.188-.289-3.313-.232l-1.768,1.771c-1.306.537-3.041-.573-4.061,1.059-3.9.564-7.618,2.124-11.633,2.111a4.97,4.97,0,0,0-3.253.631c-1.381.944-2.94.271-4.455-.588-1.642-.931-3.068,1.93-4.954.711-.273-.178-.443-.617-.717-.676-2.816-.6-5.678-1.731-8.461-1.572-4.614.264-9.223,1.017-13.843,1.456-5.847.556-11.815-1.072-17.592.986-.592.211-1.58.312-1.946-.02-1.806-1.633-4.211-1.089-6.27-1.794-2.087-.716-4.611-.158-6.944-.158-1.5.432-2.372,2.113-4.172,2.019-1.662-.087-3.478.4-4.961-.126-1.763-.62-3.121,2.656-4.758.227-1.436,2.093-2.76-.089-4.118-.178a43.644,43.644,0,0,0-16.074,2.332,9.157,9.157,0,0,1-3.678.678,15.827,15.827,0,0,0-7.456,1.379,8.972,8.972,0,0,1-6.463.06c-7.844-2.541-6.753-3.244-15.267-.626-3.086.949-5.96,2.991-9.862,2.1-.385.789-.739,1.516-1.019,2.087a5.032,5.032,0,0,0-5.706-.346,4.308,4.308,0,0,1-3.775.278c-2.287-1.266-4.744-.539-6.988-1.041-.512-2.917-2.845-3.626-4.926-3.726a19.034,19.034,0,0,1-7.318-1.736,3.818,3.818,0,0,0-1.847-.363c-2.5.082-4.068-1.571-5.756-3.013-2.233-.087-4.569.512-6.791-1.418-.471,1.835-1.769,1.3-2.878,1.432-1.256.146-2.88-.9-3.375-.583-1.313.849-2.553.435-3.8.543a29.292,29.292,0,0,1-4,.014c-3.085-.157-5.937,1.626-9.063,1.063-1.444,1.706-3.651,1.35-5.054.812-3.057-1.172-6.092-.68-9.137-.865a7.614,7.614,0,0,1-1.922-.189,27.265,27.265,0,0,0-10.247-1.782c-4.75.28-9.317-1.747-14.083-1.016-.645.1-.807-.622-1.214-.686-2.855-.444-5.156-2.1-8.292-3.524-2.364.867-6.328,2.242-7.2,3-2.772,1.573-5.327-2.088-8.084-.087-2.148-1.771-5.14.317-7.36-1.629-.443-.388-1.774-.116-2.783.26-3.272,1.218-6.678.943-10.029.181-1.969-.448-3.911-1.011-5.864-1.521-2.057,2.154-4.114.146-6.17,0a17.215,17.215,0,0,1-10.441,1.98,5.818,5.818,0,0,1-4.34,1.475,11.516,11.516,0,0,0-4.664,1.791c-1.818,1.022-3.526.294-5.167.868-.98,1.14-2.457,1.3-3.7,1.961l-1.144-1c-.575.178-.733,1.094-2.059.819-2.482-2.394-6.367-2.6-10.038-3.972-.555.7-1.167,1.48-1.646,2.09-1.979,0-4.188-.655-5.173.163-1.275,1.062-3.067.118-3.9,1.6a5.024,5.024,0,0,0-3.494-.791c-1.5.051-3,.007-4.5.014-.628,0-.7-1.07-1.693-.694-.168.025-.191.975-.831.406-.6-.832.337-2.039-1.1-2.948a61.67,61.67,0,0,1-15.7,3.981c-1.394-1.522-3.377-.406-5.231-.826-.671.881-1.173,1.539-1.694,2.225-3.583-1.016-6.671,1.573-10.036.792-.321.779-.555,1.348-.792,1.918-.626.23-1.209.3-1.579-.4.392-.5,1.087-.815.885-1.839-.179-.216-.486-.574-.78-.944-1.035-1.3-2.845-.007-3.629-.784-1.345-1.334-2.823-.95-4.169-.8-1.271.141-2.348-1.22-3.343-.52-1.493,1.049-2.836-.617-3.76-.188-3.873,1.8-7.05-.221-10.776-1.511-.034,1.7-1.615,1.113-2.562,1.535a34.857,34.857,0,0,1-6.333,1.6c-2.651-2.137-5.744-.481-8.584-1-1.03-.187-1.323,1.671-2.58.931l-1.979-1.98c-3.573.473-7.454-.813-11.184.814L863.772,6.4a2.364,2.364,0,0,1-3.434.98c-2.351-1.366-4.772-.632-7.144-.905-2.861-.331-5.878.878-8.616-.939a1.9,1.9,0,0,0-1.839.177c-.937,1.166-2.153.861-3.209.732a10.027,10.027,0,0,0-7.014,2.082c-1.225-.262-2.051-.971-3.23-1.146-1.83-.272-3.478,1.175-5.255.274-1.221,1.7-3.44.036-4.774,1.426-.81.844-1.946.515-2.812.338-1.2-.245-2.174-1.308-3.6-.95-1.085.271-2.321-.4-3.334.4-.89.7-1.9-.168-3,.49a3.333,3.333,0,0,1-3.89-.755l-1.712,1.886c-.417-.359-.834-.993-1.151-.946-2.219.328-4.478-.692-6.735.643a4.284,4.284,0,0,1-4.623-.225,3.017,3.017,0,0,0-2.726-.279c-.216.592-.427,1.169-.691,1.9-2.7-.559-5.568.833-8.078-.906-2.688,2.219-6.326-.428-9.25,1.7-1.084.785-3.217.127-4.6.127-1.521-1.064-2.737-2.025-4.479-2.028-1.248,0-2.7.55-3.62-.888-1.255,1.885-2.411.326-3.646-.052a3.02,3.02,0,0,0-1.974,0c-4.375,2.026-9.253,1.71-13.747,3.037-2.021.6-3.9,1.248-5.9.768-2.022-2.468-5.151-2.4-7.581-3.781-1.367-.776-2.691.6-4.131,1.026-.883-1.229-2.49-1.193-3.612-2.149-2.816,2.362-5.209.515-7.65-.778a2.038,2.038,0,0,1-3.021.547c-1.4-1.144-2.737-.768-4.1-.391-3.305.909-8.024.512-11.431.089-4.46-.554-8.9-3.014-13.567-.466-1.463.8-3.078-.344-4.375-1.056-.85.495-1.261,1.27-2.264,1.15-1.15-.136-2.331.018-3.494-.046-1.043-.057-1.391,1.352-2.594,1.049a2.806,2.806,0,0,0-3.049.9c-.7-.735-1.469-1.58-2.388-.432-.857,1.071-2.272-.091-3.115,1.019-.583.768-1.884-1.156-2.445.465-1.418-1.769-3.375-.822-5.093-.953-1.822-.139-3.981-.636-5.417.119-1.878.987-3.2-.3-4.747-.313-1.509-.017-2.263,1.29-3.565,1.185a3.333,3.333,0,0,0-4.426-.635,5.113,5.113,0,0,1-4.711.479c-2.677-1.051-5.646-.289-7.828-1.938l-1.688,1.342a9.4,9.4,0,0,0-2.849-1.373,33.04,33.04,0,0,0-10.609-.846,6.107,6.107,0,0,1-3.549-1.069A18.053,18.053,0,0,1,591.044,7.7a46.23,46.23,0,0,0-6.135,1.772l-1.05-.955c-.948.949-1.892,1.892-2.966,2.968h-1.811c-.608,0-.663,1.126-1.408.78l-.768-.768c-2,1.778-2,1.778-4.482,2.451-.039.618.131,1.346-.789,1.529-3.206-1.594-6.6-.994-9.968-.765-.932,1.668-1.427-.507-2.274-.259-1.041.306-1.756,1.276-3.086,1.105a12.779,12.779,0,0,1-2.6-.992,8.2,8.2,0,0,0-3.468-.05c-1.123.144-1.734-.768-2.6-.985-2.311-.58-4.655-1.614-7.058-.991-1.986.515-3.309-1.3-5.1-1.04-1.716.248-2.819,2.006-4.672,1.988-.48-.006-1.005-.111-1.326.419.217,1.2-.782,1.7-1.415,2.407-1.292.588-2.922-.468-4.132,1a2.393,2.393,0,0,1-2.335.108c-2.484-1.927-5.761.025-8.259-1.882-.759-.579-1.8.181-2.5.876-4.245-1.979-5.566-2.092-10.38-2.008-1.64.028-3.3-.806-4.912-1.238-.235-.615.029-1.39-1.033-1.775l-4.226,2.15c-.913-.293-1.238-1.4-2.357-1.017-.283.255-.646.579-1.189,1.069-.286-1.471-1.42-1.18-2.375-1.1-2.043.183-3.8,1.27-5.693,1.917-2.1.717-4.565-.853-6.657.875-.408.337-1.5-.116-1.865.229-2.136,2.005-4.152.6-6.215-.222-.93,1.526-2.3,1.788-3.373.746-1.943-1.9-3.276.342-4.865.531-1.855.221-3.325-2.316-4.94-.811-1.349,1.258-2.909.114-4.57,1.309l-1.21,1.4c-.616-.412-.9-1.157-1.866-.963-2.224,2-5.234,3.755-8.021,2.738a7.635,7.635,0,0,0-5.769.179,17.99,17.99,0,0,1-6.57,1.123,14.743,14.743,0,0,0-6.159.72c-2.106.8-4.684.251-6.683,2.073a1.915,1.915,0,0,1-2.636-.516c-.365-.543-.893-.287-1.115-.319l-3.8,2.028a14.112,14.112,0,0,0-7.78-2.065,6.614,6.614,0,0,1-3.96-.694c-1.209,1.4-2.82.387-4.208.7-3.62.819-6.958-1.528-11.58-.768l-.916,2.273c-1.011-2.458-2.813-2.3-4.293-2.836-2.534-.914-5.235-.974-7.8-1.67-3.218,1.734-6.673.716-9.859,1.035l-3.037-3.037c-2.808-.018-5.8.494-8.011-1.982L338.9,18.512c-3.176-.305-6.626.709-9.844-1.024-2.124,1.083-2.086.977-3.818.358-1.165-.416-2.049-1.458-3.438-1.375-2.79.167-5.621-.335-8.363.534-.075-.488.207-1.044-.828-1.633-2.107,1.286-4.136-1.014-6.53-.9-1.032.532-1.426,1.861-2.992,2.075-1.815-1.8-4.035-1.946-6.656-1.126-3.284,1.028-6.238-2.367-9.666-1.1-1.319-1.573-3.447-.094-4.576-.938-1.846-1.38-3.191.94-4.748.1-1.646,1.447-3.679.854-5.4,1.017-2.018,1.521-3.892,2.889-5.871,1.552-.93-.408-.84.752-1.6.083l-.643-.659c-.566.59-1.054,1.341-2.827.624-.076-.131-.547-.951-1.02-1.77,0,.371,0,.741,0,1.112-5.352-.475-9.849,1.026-13.06,4.952-2.449-.9-2.449-.9-4.533.089a7.817,7.817,0,0,0-8.169,0l-3.4-1.763c-3.532.728-6.427,1.307-8.771,2.919-.741-.571-1.028-1.3-1.82-1.158l-3.868,2.007c-3.021-1.753-5.96-.652-8.615-1.049l-2.1,2.291c-1.741-1.015-3.215.443-4.653.828l-1.235-1c-.673.673-1.262,1.263-1.872,1.872-2.219-2.337-4.406-.048-6.982.156-2.32-3.421-6.463-3.874-10.109-4.943-2.834-.832-6.127.284-9.045-1.139a1.04,1.04,0,0,0-.944.055c-1.258,1.452-3.393.7-4.481,2.077-.706-.45-1.174-.75-1.612-1.028l-.843.843c-.689-.644-1.378-1.288-2.452-2.29-.484.839-.958,1.658-1.373,2.377-1.433-.871-1.534-2.105-2.2-2.649-3.546-2.57-7.8-.318-11.329-1.861-4.142-1.811-7.867,1.129-11.987.347-.829-2.764-4.707-1.139-5.532-3.9H125.89c-1.179-1.822-3.615-2.105-4.9-4-1.657.287-3.448-.627-5.084.9a2.882,2.882,0,0,1-2.833.034c-1.654-1.725-3.939-.716-5.85-1.736-1.677-.9-4.209-.187-6.288-.187-1.525,1.737-3.758,1.651-5.562,2.533-1.992.974-4.315.342-6.438,1.366-1.779.858-4.248-.826-6.021,1.063-.493-.387-.786-1.106-2.217-.851l-.868,1.485c-2.381.849-4.2-.149-5.89,1.215a3.981,3.981,0,0,1-3.794.075c-1.715-1.29-3.445-.783-5.17-.861-2.328-.1-4.664-.026-7-.025a7.719,7.719,0,0,0-6.171-2.029c-2.98.118-5.97.028-8.855.028-.689-.688-1.278-1.278-1.867-1.867l-1.9,1.175c-.388-2.4-2.434-.7-3.564-1.615-.293-.569.012-1.362-.338-1.51-3.463-.326-6.337-.991-8.169-2.808-4.955-1.452-9.135,1.267-13.568.623-4.48-.649-8.6,1.6-12.961,1.979V.488H1023.349c14.494,0,28.988.069,43.481.015,3.862-.015,5.46.053,5.55.188h847.625V20.558C1915.9,17.628,1910.912,17.746,1906.688,15.675Z" transform="translate(-0.591 -0.488)" fill="#fff"/>
</svg>
